<?xml version="1.0" encoding="UTF-8"?>
<svg id="Layer_2" xmlns="http://www.w3.org/2000/svg" viewBox="0 0 48 48">
  <defs>
    <style>
      .cls-1 {
        fill: #c3832b;
      }
    </style>
  </defs>
  <g id="Layer_1-2" data-name="Layer_1">
    <g id="Set_of_Chat_Message_Bubbles_Vector_Icon._Communication_icons._Talk_bubble_x2C__dialog._Web_icon_set._Online_communication._Conversation_x2C__SMS_x2C__Notification_x2C__Group_Chat._Chatting_icons_in_different_styles">
      <path class="cls-1" d="M13.05,26.77c1.55,0,2.81-1.24,2.81-2.77s-1.26-2.77-2.81-2.77-2.81,1.24-2.81,2.77,1.26,2.77,2.81,2.77h0ZM24,26.77c1.55,0,2.81-1.24,2.81-2.77s-1.26-2.77-2.81-2.77-2.81,1.24-2.81,2.77,1.26,2.77,2.81,2.77h0ZM34.95,26.77c1.55,0,2.81-1.24,2.81-2.77s-1.26-2.77-2.81-2.77-2.81,1.24-2.81,2.77,1.26,2.77,2.81,2.77h0ZM4.81,9.48C9.32,3.54,16.67-.33,25.25.02c.51.02,1.02.06,1.54.11,8.65.85,16.1,6.41,19.36,14.37,2.7,6.58,2.31,13.29-.26,18.92-1.3,2.86-1.55,6.08-.63,9.08l1.44,4.7c.14.45-.27.89-.74.78l-2.23-.52-5.83-1.35c-2.27-.53-4.65-.42-6.88.25-1.18.36-2.41.63-3.67.8-.91.13-1.81.2-2.71.22-11.95.32-22.58-8.27-24.37-20.21-.98-6.51.83-12.81,4.54-17.7h0Z"/>
    </g>
  </g>
</svg>