<?xml version="1.0" encoding="UTF-8"?>
<svg id="Layer_2" xmlns="http://www.w3.org/2000/svg" viewBox="0 0 351.49 355.99">
  <defs>
    <style>
      .cls-1 {
        fill: #fff;
      }

      .cls-2 {
        fill: #c4820e;
      }
    </style>
  </defs>
  <g id="_ëÎÓÈ_1" data-name="ëÎÓÈ_1">
    <g>
      <path class="cls-2" d="M35.2,70.33C68.28,26.22,122.04-2.44,184.87.16c3.72.15,7.49.42,11.28.8,63.33,6.33,117.88,47.58,141.76,106.57,19.76,48.81,16.94,98.57-1.88,140.32-9.56,21.2-11.34,45.09-4.62,67.36l10.53,34.89c1.01,3.37-2,6.57-5.42,5.76l-16.32-3.83-42.68-10.02c-16.66-3.91-34.01-3.14-50.38,1.85-8.67,2.64-17.65,4.64-26.9,5.94-6.65.93-13.27,1.49-19.83,1.67C92.92,353.82,15.08,290.11,1.93,201.6c-7.18-48.31,6.06-95.01,33.27-131.28ZM255.93,198.57c11.36,0,20.57-9.21,20.57-20.57s-9.21-20.57-20.57-20.57-20.57,9.21-20.57,20.57,9.21,20.57,20.57,20.57ZM175.74,198.57c11.36,0,20.57-9.21,20.57-20.57s-9.21-20.57-20.57-20.57-20.57,9.21-20.57,20.57,9.21,20.57,20.57,20.57ZM95.55,198.57c11.36,0,20.57-9.21,20.57-20.57s-9.21-20.57-20.57-20.57-20.57,9.21-20.57,20.57,9.21,20.57,20.57,20.57Z"/>
      <circle class="cls-1" cx="95.55" cy="178" r="20.57"/>
      <circle class="cls-1" cx="175.75" cy="178" r="20.57"/>
      <circle class="cls-1" cx="255.93" cy="178" r="20.57"/>
    </g>
  </g>
</svg>