<?xml version="1.0" encoding="UTF-8"?>
<svg id="Layer_2" xmlns="http://www.w3.org/2000/svg" xmlns:xlink="http://www.w3.org/1999/xlink" viewBox="0 0 382 387">
  <defs>
    <style>
      .cls-1 {
        fill: #fff;
      }

      .cls-2, .cls-3 {
        fill: #c4820e;
      }

      .cls-3 {
        filter: url(#drop-shadow-1);
      }
    </style>
    <filter id="drop-shadow-1" filterUnits="userSpaceOnUse">
      <feOffset dx="0" dy="0"/>
      <feGaussianBlur result="blur" stdDeviation="5"/>
      <feFlood flood-color="#000" flood-opacity=".75"/>
      <feComposite in2="blur" operator="in"/>
      <feComposite in="SourceGraphic"/>
    </filter>
  </defs>
  <g id="_ëÎÓÈ_1" data-name="ëÎÓÈ_1">
    <g>
      <path class="cls-3" d="M346.65,330.51c-6.72-22.27-4.94-46.16,4.62-67.36,18.82-41.75,21.65-91.52,1.88-140.32-23.89-58.99-78.43-100.24-141.76-106.57-3.79-.38-7.55-.65-11.28-.8-62.84-2.61-116.59,26.06-149.68,70.16C23.23,121.89,9.99,168.58,17.17,216.9c13.15,88.51,91,152.22,178.47,149.87,6.56-.17,13.18-.74,19.83-1.67,9.25-1.3,18.24-3.3,26.9-5.94,16.36-4.99,33.72-5.76,50.38-1.85l42.68,10.02,16.32,3.83c3.42.81,6.43-2.39,5.42-5.76l-10.53-34.89Z"/>
      <path class="cls-2" d="M50.44,85.6C83.52,41.5,137.28,12.83,200.11,15.44c3.72.15,7.49.42,11.28.8,63.33,6.33,117.88,47.58,141.76,106.57,19.76,48.81,16.94,98.57-1.88,140.32-9.56,21.2-11.34,45.09-4.62,67.36l10.53,34.89c1.01,3.37-2,6.57-5.42,5.76l-16.32-3.83-42.68-10.02c-16.66-3.91-34.01-3.14-50.38,1.85-8.67,2.64-17.65,4.64-26.9,5.94-6.65.93-13.27,1.49-19.83,1.67-87.48,2.35-165.32-61.36-178.47-149.87-7.18-48.31,6.06-95.01,33.27-131.28ZM271.18,213.84c11.36,0,20.57-9.21,20.57-20.57s-9.21-20.57-20.57-20.57-20.57,9.21-20.57,20.57,9.21,20.57,20.57,20.57ZM190.99,213.84c11.36,0,20.57-9.21,20.57-20.57s-9.21-20.57-20.57-20.57-20.57,9.21-20.57,20.57,9.21,20.57,20.57,20.57ZM110.79,213.84c11.36,0,20.57-9.21,20.57-20.57s-9.21-20.57-20.57-20.57-20.57,9.21-20.57,20.57,9.21,20.57,20.57,20.57Z"/>
      <circle class="cls-1" cx="110.79" cy="193.27" r="20.57" transform="translate(-102.76 256.7) rotate(-76.72)"/>
      <circle class="cls-1" cx="190.99" cy="193.27" r="20.57" transform="translate(-40.99 334.75) rotate(-76.72)"/>
      <circle class="cls-1" cx="271.18" cy="193.27" r="20.57" transform="translate(-57.24 248.36) rotate(-45)"/>
    </g>
  </g>
</svg>